G04*
G04 #@! TF.GenerationSoftware,Altium Limited,Altium Designer,22.5.1 (42)*
G04*
G04 Layer_Color=2752767*
%FSLAX25Y25*%
%MOIN*%
G70*
G04*
G04 #@! TF.SameCoordinates,1AA75F62-4603-46E1-9AE8-A4EEB0EBD7F2*
G04*
G04*
G04 #@! TF.FilePolarity,Positive*
G04*
G01*
G75*
%ADD42C,0.00200*%
D42*
X314161Y48413D02*
Y50013D01*
X315761D01*
Y48413D01*
X314161D01*
X304318Y58255D02*
Y59855D01*
X305918D01*
Y58255D01*
X304318D01*
X294476Y48413D02*
Y50013D01*
X296076D01*
Y48413D01*
X294476D01*
X304318Y38570D02*
Y40170D01*
X305918D01*
Y38570D01*
X304318D01*
X306680Y14161D02*
X307080Y14961D01*
X306680Y15761D01*
X307480Y15361D01*
X308280Y15761D01*
X307880Y14961D01*
X308280Y14161D01*
X307480Y14561D01*
X306680Y14161D01*
Y82665D02*
X307080Y83465D01*
X306680Y84265D01*
X307480Y83865D01*
X308280Y84265D01*
X307880Y83465D01*
X308280Y82665D01*
X307480Y83065D01*
X306680Y82665D01*
X14161Y14161D02*
X14561Y14961D01*
X14161Y15761D01*
X14961Y15361D01*
X15761Y15761D01*
X15361Y14961D01*
X15761Y14161D01*
X14961Y14561D01*
X14161Y14161D01*
Y82665D02*
X14561Y83465D01*
X14161Y84265D01*
X14961Y83865D01*
X15761Y84265D01*
X15361Y83465D01*
X15761Y82665D01*
X14961Y83065D01*
X14161Y82665D01*
X289616Y72527D02*
X290016Y72927D01*
X290416D01*
X290016Y73327D01*
X290416Y73727D01*
X290016D01*
X289616Y74127D01*
X289216Y73727D01*
X288816D01*
X289216Y73327D01*
X288816Y72927D01*
X289216D01*
X289616Y72527D01*
X224670Y30200D02*
X225070Y30600D01*
X225470D01*
X225070Y31000D01*
X225470Y31400D01*
X225070D01*
X224670Y31800D01*
X224270Y31400D01*
X223870D01*
X224270Y31000D01*
X223870Y30600D01*
X224270D01*
X224670Y30200D01*
Y47527D02*
X225070Y47927D01*
X225470D01*
X225070Y48327D01*
X225470Y48727D01*
X225070D01*
X224670Y49127D01*
X224270Y48727D01*
X223870D01*
X224270Y48327D01*
X223870Y47927D01*
X224270D01*
X224670Y47527D01*
X150457Y52241D02*
X150857Y52641D01*
X151257D01*
X150857Y53041D01*
X151257Y53441D01*
X150857D01*
X150457Y53841D01*
X150057Y53441D01*
X149657D01*
X150057Y53041D01*
X149657Y52641D01*
X150057D01*
X150457Y52241D01*
Y43448D02*
X150857Y43848D01*
X151257D01*
X150857Y44248D01*
X151257Y44648D01*
X150857D01*
X150457Y45048D01*
X150057Y44648D01*
X149657D01*
X150057Y44248D01*
X149657Y43848D01*
X150057D01*
X150457Y43448D01*
X135216Y52241D02*
X135617Y52641D01*
X136016D01*
X135617Y53041D01*
X136016Y53441D01*
X135617D01*
X135216Y53841D01*
X134817Y53441D01*
X134416D01*
X134817Y53041D01*
X134416Y52641D01*
X134817D01*
X135216Y52241D01*
X281240Y47129D02*
X281640Y47529D01*
X282040D01*
X281640Y47929D01*
X282040Y48329D01*
X281640D01*
X281240Y48729D01*
X280840Y48329D01*
X280440D01*
X280840Y47929D01*
X280440Y47529D01*
X280840D01*
X281240Y47129D01*
X196000Y42580D02*
X196400Y42980D01*
X196800D01*
X196400Y43380D01*
X196800Y43780D01*
X196400D01*
X196000Y44180D01*
X195600Y43780D01*
X195200D01*
X195600Y43380D01*
X195200Y42980D01*
X195600D01*
X196000Y42580D01*
X294000Y2700D02*
X294400Y3100D01*
X294800D01*
X294400Y3500D01*
X294800Y3900D01*
X294400D01*
X294000Y4300D01*
X293600Y3900D01*
X293200D01*
X293600Y3500D01*
X293200Y3100D01*
X293600D01*
X294000Y2700D01*
X269797Y72527D02*
X270197Y72927D01*
X270597D01*
X270197Y73327D01*
X270597Y73727D01*
X270197D01*
X269797Y74127D01*
X269397Y73727D01*
X268997D01*
X269397Y73327D01*
X268997Y72927D01*
X269397D01*
X269797Y72527D01*
X274915Y50977D02*
X275315Y51377D01*
X275715D01*
X275315Y51777D01*
X275715Y52177D01*
X275315D01*
X274915Y52577D01*
X274515Y52177D01*
X274115D01*
X274515Y51777D01*
X274115Y51377D01*
X274515D01*
X274915Y50977D01*
X269797Y44476D02*
X270197Y44876D01*
X270597D01*
X270197Y45276D01*
X270597Y45676D01*
X270197D01*
X269797Y46076D01*
X269397Y45676D01*
X268997D01*
X269397Y45276D01*
X268997Y44876D01*
X269397D01*
X269797Y44476D01*
X254217Y25721D02*
X254616Y26121D01*
X255016D01*
X254616Y26521D01*
X255016Y26921D01*
X254616D01*
X254217Y27321D01*
X253817Y26921D01*
X253416D01*
X253817Y26521D01*
X253416Y26121D01*
X253817D01*
X254217Y25721D01*
X264216D02*
X264616Y26121D01*
X265017D01*
X264616Y26521D01*
X265017Y26921D01*
X264616D01*
X264216Y27321D01*
X263816Y26921D01*
X263417D01*
X263816Y26521D01*
X263417Y26121D01*
X263816D01*
X264216Y25721D01*
X277845Y32570D02*
X278244Y32970D01*
X278644D01*
X278244Y33370D01*
X278644Y33770D01*
X278244D01*
X277845Y34170D01*
X277445Y33770D01*
X277045D01*
X277445Y33370D01*
X277045Y32970D01*
X277445D01*
X277845Y32570D01*
X112216Y63407D02*
X112617Y63807D01*
X113016D01*
X112617Y64207D01*
X113016Y64607D01*
X112617D01*
X112216Y65007D01*
X111817Y64607D01*
X111416D01*
X111817Y64207D01*
X111416Y63807D01*
X111817D01*
X112216Y63407D01*
X123186Y67221D02*
X123586Y67621D01*
X123986D01*
X123586Y68021D01*
X123986Y68421D01*
X123586D01*
X123186Y68821D01*
X122786Y68421D01*
X122386D01*
X122786Y68021D01*
X122386Y67621D01*
X122786D01*
X123186Y67221D01*
X116717Y33700D02*
X117116Y34100D01*
X117517D01*
X117116Y34500D01*
X117517Y34900D01*
X117116D01*
X116717Y35300D01*
X116316Y34900D01*
X115917D01*
X116316Y34500D01*
X115917Y34100D01*
X116316D01*
X116717Y33700D01*
X99817Y62100D02*
Y61700D01*
X100617D01*
Y62100D01*
X101016D01*
Y62900D01*
X100617D01*
Y63300D01*
X99817D01*
Y62900D01*
X99417D01*
Y62100D01*
X99817D01*
X85817Y48813D02*
Y48413D01*
X86616D01*
Y48813D01*
X87016D01*
Y49613D01*
X86616D01*
Y50013D01*
X85817D01*
Y49613D01*
X85417D01*
Y48813D01*
X85817D01*
X99817Y35525D02*
Y35125D01*
X100617D01*
Y35525D01*
X101016D01*
Y36325D01*
X100617D01*
Y36725D01*
X99817D01*
Y36325D01*
X99417D01*
Y35525D01*
X99817D01*
X259301Y72527D02*
X259701Y72927D01*
X260101D01*
X259701Y73327D01*
X260101Y73727D01*
X259701D01*
X259301Y74127D01*
X258901Y73727D01*
X258501D01*
X258901Y73327D01*
X258501Y72927D01*
X258901D01*
X259301Y72527D01*
X120087Y47164D02*
X120487Y47564D01*
X120887D01*
X120487Y47964D01*
X120887Y48364D01*
X120487D01*
X120087Y48764D01*
X119687Y48364D01*
X119287D01*
X119687Y47964D01*
X119287Y47564D01*
X119687D01*
X120087Y47164D01*
X103303Y44082D02*
X102503Y45682D01*
X104103D01*
X103303Y44082D01*
X107634D02*
X106834Y45682D01*
X108434D01*
X107634Y44082D01*
X103303Y48413D02*
X102503Y50013D01*
X104103D01*
X103303Y48413D01*
X107634D02*
X106834Y50013D01*
X108434D01*
X107634Y48413D01*
X103303Y52743D02*
X102503Y54343D01*
X104103D01*
X103303Y52743D01*
X107634D02*
X106834Y54343D01*
X108434D01*
X107634Y52743D01*
M02*
