G04*
G04 #@! TF.GenerationSoftware,Altium Limited,Altium Designer,22.5.1 (42)*
G04*
G04 Layer_Color=8388736*
%FSLAX25Y25*%
%MOIN*%
G70*
G04*
G04 #@! TF.SameCoordinates,1AA75F62-4603-46E1-9AE8-A4EEB0EBD7F2*
G04*
G04*
G04 #@! TF.FilePolarity,Positive*
G04*
G01*
G75*
%ADD40C,0.00787*%
D40*
X-0Y14961D02*
X32Y13982D01*
X128Y13008D01*
X287Y12042D01*
X510Y11089D01*
X794Y10152D01*
X1139Y9235D01*
X1543Y8344D01*
X2004Y7480D01*
X2521Y6649D01*
X3091Y5853D01*
X3713Y5096D01*
X4382Y4382D01*
X5096Y3713D01*
X5853Y3092D01*
X6649Y2521D01*
X7480Y2004D01*
X8344Y1543D01*
X9235Y1139D01*
X10152Y794D01*
X11089Y510D01*
X12042Y287D01*
X13008Y128D01*
X13982Y32D01*
X14961Y-0D01*
X307480Y0D02*
X308459Y32D01*
X309433Y128D01*
X310399Y288D01*
X311352Y510D01*
X312289Y794D01*
X313206Y1139D01*
X314097Y1543D01*
X314961Y2004D01*
X315792Y2521D01*
X316588Y3092D01*
X317344Y3713D01*
X318059Y4382D01*
X318728Y5096D01*
X319349Y5853D01*
X319920Y6649D01*
X320437Y7480D01*
X320898Y8344D01*
X321302Y9235D01*
X321647Y10152D01*
X321931Y11089D01*
X322153Y12042D01*
X322313Y13008D01*
X322409Y13982D01*
X322441Y14961D01*
Y83465D02*
X322409Y84443D01*
X322313Y85417D01*
X322153Y86383D01*
X321931Y87337D01*
X321647Y88274D01*
X321302Y89190D01*
X320898Y90082D01*
X320437Y90945D01*
X319920Y91776D01*
X319349Y92572D01*
X318728Y93329D01*
X318059Y94043D01*
X317344Y94713D01*
X316588Y95334D01*
X315792Y95904D01*
X314961Y96421D01*
X314097Y96882D01*
X313206Y97286D01*
X312289Y97631D01*
X311352Y97915D01*
X310399Y98138D01*
X309433Y98297D01*
X308459Y98393D01*
X307480Y98425D01*
X14961D02*
X13982Y98393D01*
X13008Y98297D01*
X12042Y98138D01*
X11089Y97915D01*
X10152Y97631D01*
X9235Y97286D01*
X8344Y96882D01*
X7480Y96421D01*
X6649Y95904D01*
X5853Y95334D01*
X5096Y94713D01*
X4382Y94043D01*
X3713Y93329D01*
X3091Y92572D01*
X2521Y91776D01*
X2004Y90945D01*
X1543Y90082D01*
X1139Y89190D01*
X794Y88274D01*
X510Y87337D01*
X287Y86383D01*
X128Y85417D01*
X32Y84443D01*
X-0Y83465D01*
X14961Y-0D02*
X307480Y0D01*
X322441Y14961D02*
Y83465D01*
X14961Y98425D02*
X307480D01*
X-0Y14961D02*
Y83465D01*
M02*
